<svg width="128" height="28" viewBox="0 0 128 28" fill="none" xmlns="http://www.w3.org/2000/svg">
<g clip-path="url(#clip0_340_30)">
<path d="M16.7695 20.7407H12.2287L3.46096 10.6204V20.7407H0V0H3.46096V9.03705L11.5734 0H15.9758L7.06037 9.78704L16.7695 20.7407Z" fill="#200653"/>
<path d="M25.8695 5.95357C26.6831 5.9152 27.4955 6.0524 28.2518 6.35589C29.008 6.65938 29.6906 7.12212 30.2534 7.71285C31.3839 9.03427 31.9625 10.7425 31.8685 12.4814V20.7406H28.5645V12.8888C28.6343 11.8769 28.3025 10.8784 27.6415 10.111C27.3173 9.76891 26.9239 9.50024 26.4878 9.32299C26.0517 9.14574 25.5829 9.06398 25.1127 9.0832C24.6312 9.0605 24.1503 9.14036 23.7017 9.31751C23.2531 9.49465 22.847 9.76508 22.5101 10.111C22.1716 10.4858 21.9108 10.9244 21.7429 11.4013C21.5749 11.8782 21.5032 12.3838 21.5318 12.8888V20.7406H18.2646V6.25914H21.5318V8.53691C21.9679 7.74836 22.6049 7.09013 23.3776 6.6295C24.1338 6.1865 24.9938 5.95321 25.8695 5.95357Z" fill="#200653"/>
<path d="M55.4952 20.7412L50.2715 6.25977H53.8063L56.8242 15.6764L60.2206 6.25977H62.8232L66.2565 15.6764L69.256 6.25977H72.8L67.5763 20.7412H64.9367L61.5219 11.3524L58.0979 20.7412H55.4952Z" fill="#200653"/>
<path d="M88.5547 -0.00052558H92.0157V20.7402H88.5547V11.6384H78.541V20.731H75.0801V-0.00976562H78.541V8.32357H88.5547V-0.00052558Z" fill="#200653"/>
<path d="M105.952 6.25977H109.256V20.7412H105.952V18.4542C105.52 19.2483 104.882 19.9106 104.106 20.3709C103.337 20.823 102.459 21.0537 101.568 21.0375C100.752 21.0804 99.936 20.9462 99.1763 20.6443C98.4166 20.3423 97.7307 19.8795 97.1654 19.2875C96.0406 17.9529 95.4691 16.2361 95.5688 14.4912V6.25977H98.8359V14.1024C98.8107 14.5992 98.8833 15.0962 99.0496 15.5648C99.2158 16.0335 99.4725 16.4647 99.805 16.8338C100.134 17.1771 100.532 17.4463 100.973 17.6235C101.414 17.8007 101.887 17.8818 102.361 17.8616C102.838 17.8809 103.314 17.7994 103.758 17.6224C104.201 17.4453 104.603 17.1766 104.936 16.8338C105.269 16.4647 105.526 16.0335 105.692 15.5648C105.858 15.0962 105.931 14.5992 105.905 14.1024L105.952 6.25977Z" fill="#200653"/>
<path d="M121.124 5.95326C122.046 5.94322 122.96 6.13426 123.801 6.51315C124.642 6.89204 125.392 7.44976 125.997 8.14773C127.329 9.59768 128.047 11.51 128 13.481C128.009 14.8005 127.692 16.1017 127.077 17.2681C126.505 18.3986 125.646 19.357 124.585 20.0459C123.552 20.7171 122.346 21.071 121.115 21.0644C120.05 21.0887 118.999 20.8265 118.069 20.3051C117.185 19.7996 116.457 19.0596 115.965 18.1662V20.7681H112.688V0.0273438H115.965V8.86069C116.454 7.9605 117.183 7.21381 118.069 6.70329C119.004 6.18809 120.058 5.92936 121.124 5.95326ZM120.404 17.8977C120.981 17.907 121.554 17.7975 122.087 17.5762C122.621 17.3548 123.103 17.0262 123.505 16.6107C123.916 16.2021 124.24 15.714 124.457 15.176C124.675 14.6381 124.781 14.0614 124.77 13.481C124.779 12.9051 124.672 12.3333 124.454 11.8001C124.237 11.267 123.914 10.7836 123.505 10.3792C123.103 9.96489 122.62 9.63772 122.087 9.41794C121.553 9.19817 120.981 9.09045 120.404 9.10144C119.82 9.08341 119.237 9.18493 118.693 9.39983C118.149 9.61473 117.654 9.93848 117.238 10.3514C116.826 10.759 116.501 11.2469 116.284 11.7851C116.066 12.3233 115.961 12.9005 115.974 13.481C115.959 14.066 116.064 14.6478 116.281 15.1907C116.499 15.7336 116.825 16.2263 117.238 16.6385C117.654 17.0526 118.148 17.3778 118.692 17.5943C119.237 17.8108 119.819 17.914 120.404 17.8977Z" fill="#200653"/>
<path d="M40.9501 22.0002C39.1596 22.0002 38.7627 22.3706 38.1813 21.2873C37.5999 20.2039 36.7231 19.0095 35.9571 17.8984C34.9891 16.5029 34.5109 14.8241 34.5978 13.1262C34.6847 11.4283 35.3317 9.80749 36.437 8.51875C37.5611 7.23598 39.0836 6.37096 40.7583 6.06349C42.433 5.75602 44.1621 6.02406 45.6662 6.82428C46.6461 7.35986 47.4967 8.10498 48.1577 9.00689C48.8188 9.90879 49.2742 10.9455 49.4917 12.0435C49.7092 13.1415 49.6834 14.2741 49.4163 15.3611C49.1492 16.4481 48.6472 17.4628 47.9458 18.3336C47.0443 19.4357 46.2875 20.6493 45.6939 21.9447C45.5093 22.4076 43.8019 21.9447 43.1928 21.9447C42.5836 21.9447 44.6233 18.1762 45.7862 16.7687C46.3352 16.1318 46.7116 15.3638 46.8792 14.5387C47.0468 13.7136 47 12.8591 46.7432 12.0573C46.4864 11.2556 46.0283 10.5337 45.413 9.96101C44.7977 9.38831 44.0458 8.98411 43.2297 8.78727C42.2536 8.54631 41.2275 8.61052 40.2888 8.97131C39.3502 9.3321 38.544 9.97221 37.9783 10.8058C37.4283 11.6271 37.1346 12.5941 37.1346 13.5836C37.1346 14.573 37.4283 15.54 37.9783 16.3613C38.8181 17.6113 39.6026 18.8891 40.3686 20.1854C40.6547 20.6021 41.4023 22.0095 40.9501 22.0002Z" fill="#6F33E6"/>
<path d="M42.0479 23.8709C42.9246 23.8709 43.8014 23.8709 44.669 23.8709C45.2966 23.8709 45.435 24.1209 45.4996 24.7042C45.5325 25.2522 45.4436 25.8006 45.2392 26.3098C45.0349 26.8191 44.7204 27.2764 44.3183 27.6487C44.0772 27.8588 43.77 27.9768 43.4507 27.982C42.8785 28.0283 42.2878 27.982 41.7064 27.982C39.6298 27.982 38.5039 26.7135 38.6331 24.6209C38.6331 24.0376 38.8822 23.8524 39.4268 23.8617C40.3035 23.8894 41.1711 23.8709 42.0479 23.8709Z" fill="#6F33E6"/>
<path d="M38.4209 13.8052C38.4209 11.6941 40.4698 9.74039 42.2879 9.86076C42.5833 9.86076 43.1463 9.99966 43.1463 10.4811C43.1394 10.6631 43.0643 10.8358 42.9359 10.9646C42.8076 11.0933 42.6355 11.1687 42.4541 11.1756C41.7651 11.2112 41.1104 11.4884 40.6044 11.9589C40.0983 12.4293 39.7731 13.0631 39.6853 13.7497C39.6115 14.046 39.4546 14.5367 38.9839 14.5367C38.5132 14.5367 38.4209 14.1941 38.4209 13.8052Z" fill="#6F33E6"/>
</g>
<defs>
<clipPath id="clip0_340_30">
<rect width="128" height="28" fill="white"/>
</clipPath>
</defs>
</svg>
